<svg width="16" height="18" viewBox="0 0 16 18" fill="none" xmlns="http://www.w3.org/2000/svg">
<g clip-path="url(#clip0_414_175)">
<path d="M0.28669 2.25H4.00098L5.20098 0.675C5.36066 0.465419 5.56772 0.295313 5.80575 0.178154C6.04379 0.0609948 6.30627 0 6.5724 0L9.42955 0C9.69568 0 9.95816 0.0609948 10.1962 0.178154C10.4342 0.295313 10.6413 0.465419 10.801 0.675L12.001 2.25H15.7153C15.791 2.25 15.8637 2.27963 15.9173 2.33238C15.9709 2.38512 16.001 2.45666 16.001 2.53125V3.09375C16.001 3.16834 15.9709 3.23988 15.9173 3.29262C15.8637 3.34537 15.791 3.375 15.7153 3.375H15.0403L13.8545 16.4637C13.8162 16.8833 13.6198 17.2737 13.3039 17.558C12.988 17.8423 12.5754 17.9999 12.1474 18H3.85455C3.42652 17.9999 3.014 17.8423 2.69809 17.558C2.38218 17.2737 2.18575 16.8833 2.1474 16.4637L0.96169 3.375H0.28669C0.210914 3.375 0.138241 3.34537 0.0846594 3.29262C0.0310776 3.23988 0.000975847 3.16834 0.000975847 3.09375V2.53125C0.000975847 2.45666 0.0310776 2.38512 0.0846594 2.33238C0.138241 2.27963 0.210914 2.25 0.28669 2.25ZM9.88669 1.35C9.83327 1.28034 9.76421 1.22378 9.68491 1.18475C9.60561 1.14572 9.51821 1.12527 9.42955 1.125H6.5724C6.48374 1.12527 6.39634 1.14572 6.31704 1.18475C6.23774 1.22378 6.16868 1.28034 6.11526 1.35L5.42955 2.25H10.5724L9.88669 1.35ZM3.28669 16.3617C3.29845 16.5019 3.36342 16.6325 3.46866 16.7277C3.5739 16.8228 3.71168 16.8754 3.85455 16.875H12.1474C12.2903 16.8754 12.4281 16.8228 12.5333 16.7277C12.6385 16.6325 12.7035 16.5019 12.7153 16.3617L13.8938 3.375H2.10812L3.28669 16.3617Z" fill="#0D6EFD"/>
</g>
<defs>
<clipPath id="clip0_414_175">
<rect width="16" height="18" fill="white" transform="matrix(-1 0 0 1 16.001 0)"/>
</clipPath>
</defs>
</svg>
