<svg width="29" height="29" viewBox="0 0 29 29" fill="none" xmlns="http://www.w3.org/2000/svg">
<path d="M27.1641 22.4834L22.413 17.7323L18.7587 16.2226C19.9755 14.4922 20.6273 12.4279 20.625 10.3125C20.625 4.62615 15.9988 0 10.3125 0C4.62615 0 0 4.62615 0 10.3125C0 15.9988 4.62615 20.625 10.3125 20.625C12.4463 20.6274 14.5277 19.9643 16.2667 18.7279L17.7726 22.3724L22.5234 27.1237C22.8281 27.4284 23.1898 27.6701 23.588 27.835C23.9861 27.9999 24.4127 28.0848 24.8436 28.0848C25.2746 28.0849 25.7012 28 26.0994 27.8351C26.4975 27.6702 26.8592 27.4285 27.1639 27.1238C27.4686 26.8192 27.7103 26.4574 27.8752 26.0593C28.0402 25.6612 28.1251 25.2345 28.1251 24.8036C28.1251 24.3727 28.0402 23.946 27.8753 23.5479C27.7104 23.1498 27.4688 22.7881 27.1641 22.4834V22.4834ZM1.875 10.3125C1.875 5.66016 5.66016 1.875 10.3125 1.875C14.9648 1.875 18.75 5.66016 18.75 10.3125C18.75 14.9648 14.9648 18.75 10.3125 18.75C5.66016 18.75 1.875 14.9648 1.875 10.3125ZM25.8381 25.7979C25.5742 26.0612 25.2166 26.2091 24.8438 26.2091C24.4709 26.2091 24.1133 26.0612 23.8494 25.7979L19.3627 21.3113L17.9627 17.9225L21.3516 19.3225L25.8383 23.8092C26.1016 24.0731 26.2494 24.4307 26.2494 24.8035C26.2494 25.1764 26.1015 25.534 25.8381 25.7979V25.7979Z" fill="white"/>
</svg>
